<?xml version="1.0" encoding="utf-8"?>
<!-- Generator: Adobe Illustrator 22.1.0, SVG Export Plug-In . SVG Version: 6.00 Build 0)  -->
<svg version="1.1" id="Laag_1" xmlns="http://www.w3.org/2000/svg" xmlns:xlink="http://www.w3.org/1999/xlink" x="0px" y="0px"
	 viewBox="0 0 191.8 191.8" style="enable-background:new 0 0 191.8 191.8;" xml:space="preserve">
<style type="text/css">
	.st0{clip-path:url(#SVGID_2_);}
	.st1{clip-path:url(#SVGID_4_);fill:#A01835;}
	.st2{clip-path:url(#SVGID_6_);}
	.st3{clip-path:url(#SVGID_8_);fill:#A01835;}
</style>
<g>
	<defs>
		<path id="SVGID_1_" d="M0,100.4c0,50.5,42.9,91.4,95.9,91.4s95.9-40.9,95.9-91.4c0-41.4-28.9-76.4-68.5-87.6v27.7
			c24.3,10.2,41.1,33.2,41.1,59.9c0,36-30.7,65.3-68.5,65.3s-68.5-29.3-68.5-65.3c0-26.8,16.9-49.8,41.1-59.9V12.8
			C28.9,24,0,59,0,100.4z"/>
	</defs>
	<use xlink:href="#SVGID_1_"  style="overflow:visible;fill-rule:evenodd;clip-rule:evenodd;fill:#A01835;"/>
	<clipPath id="SVGID_2_">
		<use xlink:href="#SVGID_1_"  style="overflow:visible;"/>
	</clipPath>
	<g class="st0">
		<defs>
			<rect id="SVGID_3_" x="-2082.8" y="-703.4" width="4795.9" height="10103.5"/>
		</defs>
		<use xlink:href="#SVGID_3_"  style="overflow:visible;fill:#A01835;"/>
		<clipPath id="SVGID_4_">
			<use xlink:href="#SVGID_3_"  style="overflow:visible;"/>
		</clipPath>
		<rect x="-68.5" y="-51.2" class="st1" width="328.9" height="306.9"/>
	</g>
</g>
<g>
	<defs>
		<path id="SVGID_5_" d="M82.2,12.8C82.2,6.4,89.1,0,95.9,0s13.7,6.4,13.7,12.8v76.7c0,6.4-6.9,12.8-13.7,12.8s-13.7-6.4-13.7-12.8
			V12.8z"/>
	</defs>
	<use xlink:href="#SVGID_5_"  style="overflow:visible;fill-rule:evenodd;clip-rule:evenodd;fill:#A01835;"/>
	<clipPath id="SVGID_6_">
		<use xlink:href="#SVGID_5_"  style="overflow:visible;"/>
	</clipPath>
	<g class="st2">
		<defs>
			<rect id="SVGID_7_" x="-2082.8" y="-703.4" width="4795.9" height="10103.5"/>
		</defs>
		<use xlink:href="#SVGID_7_"  style="overflow:visible;fill:#A01835;"/>
		<clipPath id="SVGID_8_">
			<use xlink:href="#SVGID_7_"  style="overflow:visible;"/>
		</clipPath>
		<rect x="13.7" y="-63.9" class="st3" width="164.4" height="230.2"/>
	</g>
</g>
</svg>
